<svg xmlns="http://www.w3.org/2000/svg" width="64" height="64" viewBox="0 0 64 64" role="img" aria-label="SatguruAI favicon">
  <rect width="64" height="64" rx="16" fill="#047857"/>
  <path d="M15 39c2.8 4.8 8.5 8 15.5 8 8.8 0 16.5-4.6 16.5-13.2 0-7.3-5.4-10-14.6-12.1-6.1-1.4-8.1-2.3-8.1-4.8 0-2.4 2.3-4.1 6.3-4.1 4.8 0 8 1.8 10.5 5.2l5.6-5.1C43 7.9 37.9 5.2 30.8 5.2c-8.3 0-15.2 4.7-15.2 12.1 0 7.6 5.7 10.2 14.3 12.2 6.5 1.5 8.3 2.6 8.3 5.1 0 2.7-2.6 4.6-7.5 4.6-5.2 0-9.2-2.2-11.4-5.8L15 39Z" fill="#fff"/>
  <path d="M47 40l4.8 13H46l-.8-2.7h-5.3l-.8 2.7h-5.6l4.8-13H47Zm-5.9 6.4h2.8l-1.4-4.4-1.4 4.4ZM54 40h5v13h-5V40Z" fill="#f97316"/>
</svg>
